<svg viewBox="0 0 187 73" fill="none" xmlns="http://www.w3.org/2000/svg">
<g filter="url(#filter0_d)">
<g clip-path="url(#clip0)">
<path d="M36.5 4.00416C22.3622 3.90649 13.5215 9.62001 11.683 21.6999C11.2388 24.6119 11 27.0792 11 29.5029C11 31.9138 11.2388 34.3914 11.683 37.306C13.5215 49.3859 22.3647 55.0994 36.5 55.0017C50.6353 55.0994 59.4759 49.3859 61.317 37.306C61.7612 34.394 62 31.9266 62 29.5029C62 27.0921 61.7612 24.6144 61.317 21.6999C59.4759 9.62001 50.6353 3.90649 36.5 4.00416Z" fill="white"/>
<path d="M47.6645 37.7131C50.2982 37.7131 52.2868 36.9099 53.3618 35.7854C53.9171 35.1606 54.58 34.1967 54.1142 33.447C53.7022 32.7866 53.0214 32.6616 52.2152 33.0722C51.4089 33.4827 50.4952 33.6969 49.4561 33.6969C48.4528 33.6969 47.3958 33.3221 46.8225 32.7687C46.1417 32.0905 45.7655 31.2158 45.7655 30.1805C45.7655 29.9306 45.9267 29.8949 46.1955 30.127C46.9121 30.6803 47.9691 30.9659 49.4203 30.9659C52.0718 30.9659 54.4188 29.1988 54.4188 26.4499C54.4188 23.5583 51.6598 21.3984 47.5033 21.3984C42.8452 21.3984 39.2441 24.3972 39.2441 29.4308C39.2621 34.1253 42.3794 37.7131 47.6645 37.7131Z" fill="#161616"/>
<path d="M28.4396 32.7888C28.9412 32.7888 29.2279 33.0744 29.5683 33.592L31.0732 35.9303C31.6286 36.8407 32.1123 37.4654 33.2052 37.4654C34.298 37.4654 34.7997 37.037 35.3372 35.8232C36 34.3238 36.6808 32.521 37.3079 30.0935C37.9887 27.3803 38.3112 25.7024 38.3112 24.328C38.3112 22.9535 37.8454 22.1325 36.3404 21.8469C34.2801 21.472 31.5032 21.2578 28.4396 21.2578C25.376 21.2578 22.5811 21.472 20.5208 21.8469C19.0159 22.1325 18.5859 22.9357 18.5859 24.3101C18.5859 25.6846 18.8905 27.3624 19.5892 30.0756C20.2163 32.5032 20.8971 34.306 21.56 35.8054C22.0974 37.0192 22.5991 37.4476 23.6919 37.4476C24.7848 37.4476 25.2506 36.8228 25.8239 35.9125L27.3288 33.5742C27.6513 33.0565 27.938 32.7888 28.4396 32.7888Z" fill="#161616"/>
</g>
</g>
<g filter="url(#filter1_d)">
<g clip-path="url(#clip1)">
<path d="M93.875 4.00416C79.7372 3.90649 70.8965 9.62001 69.058 21.6999C68.6138 24.6119 68.375 27.0792 68.375 29.5029C68.375 31.9138 68.6138 34.3914 69.058 37.306C70.8965 49.3859 79.7397 55.0994 93.875 55.0017C108.01 55.0994 116.851 49.3859 118.692 37.306C119.136 34.394 119.375 31.9266 119.375 29.5029C119.375 27.0921 119.136 24.6144 118.692 21.6999C116.851 9.62001 108.01 3.90649 93.875 4.00416Z" fill="white"/>
<path d="M96.2299 16.0039C84.2937 16.0039 78.8828 18.7281 78.8828 28.0104C78.8975 28.7275 78.961 29.4537 79.0637 30.1708C79.4938 33.2243 80.8771 35.5472 83.3552 36.9995C85.1686 38.0639 87.1336 38.542 89.1425 38.8487C91.6304 39.2276 94.1379 39.2727 96.6405 39.2907C97.4763 39.2817 103.185 39.3809 105.835 38.3751C109.334 37.0446 112.008 33.7926 112.008 28.3983C112.008 19.5265 107.218 16.0039 96.2299 16.0039Z" fill="#5115AA"/>
<path d="M87.877 26.9102C82.5688 26.9102 80.555 27.4875 78.8785 28.0107C76.3807 28.9894 74.6113 30.9289 74.6113 35.3309C74.6113 41.916 80.5159 43.9998 89.9006 43.9998C94.0553 43.9998 97.3742 42.5069 99.1534 39.2504C99.3538 38.849 99.9794 37.3696 99.9794 35.1595C99.9794 29.5126 97.1934 26.9102 87.877 26.9102Z" fill="#F9C346"/>
<path d="M99.1529 39.2455C98.317 39.2681 97.4812 39.2816 96.6454 39.2861C94.1379 39.2681 87.2949 39.3899 83.3552 36.9949C80.7842 35.4298 78.9806 32.9085 78.8828 28.0058C80.5594 27.4826 82.5732 26.9053 87.8814 26.9053C97.1928 26.9098 99.9789 29.5122 99.9789 35.1547C99.9789 37.3647 99.3484 38.8441 99.1529 39.2455Z" fill="#F36464"/>
</g>
</g>
<g filter="url(#filter2_d)">
<g clip-path="url(#clip2)">
<path d="M151.25 4.00416C137.112 3.90649 128.271 9.62001 126.433 21.6999C125.989 24.6119 125.75 27.0792 125.75 29.5029C125.75 31.9138 125.989 34.3914 126.433 37.306C128.271 49.3859 137.115 55.0994 151.25 55.0017C165.385 55.0994 174.226 49.3859 176.067 37.306C176.511 34.394 176.75 31.9266 176.75 29.5029C176.75 27.0921 176.511 24.6144 176.067 21.6999C174.226 9.62001 165.385 3.90649 151.25 4.00416Z" fill="white"/>
<path d="M150.619 37.5676C150.619 40.5541 148.71 42.647 145.206 42.647C141.703 42.647 139.586 40.4284 139.586 37.5676C139.586 34.7068 141.74 32.7939 144.998 32.7939C148.256 32.7939 150.619 34.3874 150.619 37.5676Z" fill="#5115AA"/>
<path d="M163.286 15.8983C164.854 17.6141 164.814 20.1624 164.335 22.3368C163.944 24.1172 162.521 24.9768 160.711 24.3754C158.272 23.5668 154.275 20.2813 153.101 18.3752C152.52 17.4341 152.52 15.5892 154.718 14.964C156.648 14.4102 161.717 14.1825 163.286 15.8983Z" fill="#F9C346"/>
<path d="M158.664 42.6469C163.242 42.6469 164.664 38.5766 164.664 34.3669C164.664 30.1573 163.205 26.0869 158.664 26.0869C154.122 26.0869 152.645 30.1573 152.645 34.3669C152.645 38.5766 154.085 42.6469 158.664 42.6469Z" fill="#F36464"/>
<path d="M145.094 30.8035C139.587 30.8035 139.258 27.236 139.258 22.9584C139.258 18.6808 139.569 14.5391 145.094 14.5391C150.62 14.5391 150.949 18.6808 150.949 22.9584C150.949 27.5893 150.598 30.8035 145.094 30.8035Z" fill="#FF904B"/>
</g>
</g>
<defs>
<filter id="filter0_d" x="0.8" y="0.812502" width="71.4" height="71.4" filterUnits="userSpaceOnUse" color-interpolation-filters="sRGB">
<feFlood flood-opacity="0" result="BackgroundImageFix"/>
<feColorMatrix in="SourceAlpha" type="matrix" values="0 0 0 0 0 0 0 0 0 0 0 0 0 0 0 0 0 0 127 0"/>
<feOffset dy="7.0125"/>
<feGaussianBlur stdDeviation="5.1"/>
<feColorMatrix type="matrix" values="0 0 0 0 0 0 0 0 0 0 0 0 0 0 0 0 0 0 0.12 0"/>
<feBlend mode="normal" in2="BackgroundImageFix" result="effect1_dropShadow"/>
<feBlend mode="normal" in="SourceGraphic" in2="effect1_dropShadow" result="shape"/>
</filter>
<filter id="filter1_d" x="58.175" y="0.812502" width="71.4" height="71.4" filterUnits="userSpaceOnUse" color-interpolation-filters="sRGB">
<feFlood flood-opacity="0" result="BackgroundImageFix"/>
<feColorMatrix in="SourceAlpha" type="matrix" values="0 0 0 0 0 0 0 0 0 0 0 0 0 0 0 0 0 0 127 0"/>
<feOffset dy="7.0125"/>
<feGaussianBlur stdDeviation="5.1"/>
<feColorMatrix type="matrix" values="0 0 0 0 0 0 0 0 0 0 0 0 0 0 0 0 0 0 0.12 0"/>
<feBlend mode="normal" in2="BackgroundImageFix" result="effect1_dropShadow"/>
<feBlend mode="normal" in="SourceGraphic" in2="effect1_dropShadow" result="shape"/>
</filter>
<filter id="filter2_d" x="115.55" y="0.812502" width="71.4" height="71.4" filterUnits="userSpaceOnUse" color-interpolation-filters="sRGB">
<feFlood flood-opacity="0" result="BackgroundImageFix"/>
<feColorMatrix in="SourceAlpha" type="matrix" values="0 0 0 0 0 0 0 0 0 0 0 0 0 0 0 0 0 0 127 0"/>
<feOffset dy="7.0125"/>
<feGaussianBlur stdDeviation="5.1"/>
<feColorMatrix type="matrix" values="0 0 0 0 0 0 0 0 0 0 0 0 0 0 0 0 0 0 0.12 0"/>
<feBlend mode="normal" in2="BackgroundImageFix" result="effect1_dropShadow"/>
<feBlend mode="normal" in="SourceGraphic" in2="effect1_dropShadow" result="shape"/>
</filter>
<clipPath id="clip0">
<rect x="11" y="4" width="51" height="51" rx="10.8778" fill="white"/>
</clipPath>
<clipPath id="clip1">
<rect x="68.375" y="4" width="51" height="51" rx="10.8778" fill="white"/>
</clipPath>
<clipPath id="clip2">
<rect x="125.75" y="4" width="51" height="51" rx="10.8778" fill="white"/>
</clipPath>
</defs>
</svg>
