<svg viewBox="0 0 373 42" fill="none" xmlns="http://www.w3.org/2000/svg">
<path d="M56.8894 2.2002C54.7482 4.42806 54.1155 5.61463 52.5826 8.98064L38.4454 41.333L28.4447 18.667L18.5657 41.333L4.30686 9.00486C2.84691 5.63885 2.18993 4.54914 0 2.2002H18.0791C16.7164 3.33834 16.0108 4.81551 16.0108 6.65592C16.0108 7.96357 16.2298 8.88378 16.9354 10.5789L22.3373 23.4133L26.3278 13.848L24.0892 8.66583C22.7752 5.68728 21.8506 3.82266 20.5366 2.2002H38.6157C36.8638 3.33834 35.9878 4.81551 35.9878 6.65592C35.9878 7.96357 36.2068 8.88378 36.9124 10.5789L42.4359 23.4133L47.8864 10.5789C48.592 8.88378 48.8597 7.96357 48.8597 6.72856C48.8597 5.1061 47.7161 3.14461 46.4021 2.22441H56.8894V2.2002Z" fill="white"/>
<path d="M75.674 31.0171C73.9221 38.5725 69.7125 41.0667 63.6051 41.0667C56.6216 41.0667 50.0762 36.0056 50.0762 26.513C50.0762 17.3836 55.8673 10.918 63.4591 10.918C68.4229 10.918 75.4063 13.4606 75.4063 24.2367H58.9089C60.0525 30.0001 63.8241 32.9786 69.0556 32.9786C71.7321 32.9544 73.6057 32.4701 75.674 31.0171ZM58.5926 20.459V21.1613H65.795C65.795 15.7369 64.6027 14.0418 62.2911 14.0418C59.9552 14.0418 58.5926 16.3908 58.5926 20.459Z" fill="white"/>
<path d="M108.767 12.0322C104.241 7.74602 99.7636 5.51816 96.3084 5.51816V29.4919C96.3084 34.3351 97.5737 37.2652 100.883 40.2437H80.249C83.5825 37.2652 84.8235 34.3108 84.8235 29.4919V5.51816C81.3926 5.51816 76.6964 7.74602 72.3652 12.0322L74.5552 0.578125C76.0394 1.71627 78.7647 2.20059 81.8063 2.20059H99.277C102.343 2.20059 105.068 1.71627 106.528 0.578125L108.767 12.0322Z" fill="white"/>
<path d="M121.322 40.2442H103.949C106.09 37.7499 107.015 36.1033 107.015 32.1561V23.3415C107.015 20.2419 106.577 18.7889 104.509 16.8759L103.316 15.7861L116.432 10.8945V17.675C117.697 13.752 119.644 10.8945 122.88 10.8945C125.508 10.8945 127.187 12.7349 127.187 15.4471C127.187 18.3288 125.386 20.3387 122.88 20.3387C122.344 19.0795 121.03 18.4983 119.814 18.4983C118.841 18.4983 117.892 18.7647 117.405 19.249V31.817C117.381 36.0064 118.086 37.1445 121.322 40.2442Z" fill="white"/>
<path d="M157.188 35.2549C156.531 38.6694 153.684 41.0667 149.816 41.0667C146.531 41.0667 144.024 39.1052 143.27 36.8774C141.64 39.8075 138.574 41.0667 135.289 41.0667C130.763 41.0667 127.697 38.0882 127.697 33.9957C127.697 29.2252 131.128 25.9076 139.061 23.9945L142.71 23.1228V18.2312C142.71 15.18 141.664 13.945 139.815 13.945C138.063 13.945 136.919 15.0831 136.919 16.6571C136.919 18.0132 137.576 18.885 138.72 19.9747C138.72 21.7182 135.995 23.5102 133.148 23.5102C130.374 23.5102 128.403 21.3792 128.403 18.7881C128.403 14.1629 133.537 10.918 141.08 10.918C148.94 10.918 153.1 14.2355 153.1 21.6214V33.2934C153.1 34.7706 153.976 35.7392 155.339 35.7392C156.142 35.7392 156.75 35.5697 157.188 35.2549ZM142.71 34.4316V25.6897L142.005 25.9076C139.669 26.6099 138.063 28.1355 138.063 31.1867C138.063 33.802 139.109 35.376 140.788 35.376C141.688 35.3518 142.394 35.0854 142.71 34.4316Z" fill="white"/>
<path d="M171.982 40.2442H157.285C158.818 38.767 159.791 36.6118 159.791 32.1561V23.3415C159.791 20.3629 159.402 18.8373 157.601 17.1422L156.336 16.0041L169.865 10.8945V15.1323C171.446 12.517 174.78 10.8945 178.114 10.8945C183.345 10.8945 186.241 13.7278 186.241 18.7647V33.9965C186.241 37.0961 187.068 38.9849 188.382 40.2442H174.074C175.486 38.8881 175.875 37.0477 175.875 35.5705V20.0239C175.875 17.7476 175.121 16.6095 172.979 16.6095C171.787 16.6095 170.789 17.0454 170.132 17.6992V35.5705C170.181 37.0477 170.546 38.8397 171.982 40.2442Z" fill="white"/>
<path d="M191.082 38.6696V29.3707C195.024 34.4802 199.112 37.3135 202.932 37.3135C204.782 37.3135 205.658 36.3448 205.658 34.9887C205.658 33.6811 204.952 32.9304 203.687 32.4461L197.36 30.1213C192.494 28.3294 190.328 25.3508 190.328 20.8951C190.328 15.1317 195.073 10.9424 201.837 10.9424C205.487 10.9424 209.526 11.9837 211.546 13.4366V21.3794C209.04 16.9721 204.928 14.5263 200.961 14.5263C198.942 14.5263 197.896 15.1802 197.896 16.4394C197.896 17.6986 198.65 18.1829 200.353 18.8852L207.848 21.888C211.619 23.4136 213.298 26.61 213.298 30.4846C213.298 36.8534 208.651 41.0911 201.667 41.0911C198.188 41.0669 194.586 40.292 191.082 38.6696Z" fill="white"/>
<path d="M214.394 14.4296L217.557 9.58643C221.596 3.50825 224.832 0.578125 230.283 0.578125C234.541 0.578125 237.266 2.41853 237.266 5.20336C237.266 7.60073 235.295 9.34427 231.159 9.34427C231.159 5.97827 229.237 4.71904 227.339 4.71904C225.416 4.71904 223.956 6.07513 223.956 8.30299C223.956 9.82859 224.784 11.3542 227.29 11.7174H233.349L231.159 14.4296H227.436V30.5574C227.436 33.6086 227.923 36.3208 231.086 39.0814L232.4 40.2195H213.566C215.756 38.0401 217.07 35.3763 217.07 31.4776V14.4296H214.394Z" fill="white"/>
<path d="M257.195 31.0171C255.444 38.5725 251.234 41.0667 245.127 41.0667C238.143 41.0667 231.598 36.0056 231.598 26.513C231.598 17.3836 237.389 10.918 244.981 10.918C249.944 10.918 256.928 13.4606 256.928 24.2367H240.43C241.574 30.0001 245.346 32.9786 250.577 32.9786C253.278 32.9544 255.127 32.4701 257.195 31.0171ZM240.114 20.459V21.1613H247.316C247.316 15.7369 246.124 14.0418 243.813 14.0418C241.477 14.0418 240.114 16.3908 240.114 20.459Z" fill="white"/>
<path d="M275.492 40.2442H258.119C260.26 37.7499 261.185 36.1033 261.185 32.1561V23.3415C261.185 20.2419 260.747 18.7889 258.679 16.8759L257.486 15.7861L270.602 10.8945V17.675C271.867 13.752 273.813 10.8945 277.05 10.8945C279.678 10.8945 281.357 12.7349 281.357 15.4471C281.357 18.3288 279.556 20.3387 277.05 20.3387C276.514 19.0795 275.2 18.4983 273.984 18.4983C273.01 18.4983 272.062 18.7647 271.575 19.249V31.817C271.551 36.0064 272.256 37.1445 275.492 40.2442Z" fill="white"/>
<path d="M296.199 1.92188H309.088C311.928 1.92188 314.265 2.22681 316.098 2.83669C317.968 3.44657 319.424 4.2717 320.466 5.31209C321.545 6.35247 322.282 7.57222 322.677 8.97136C323.109 10.3346 323.325 11.7876 323.325 13.3302C323.325 14.9446 323.109 16.4872 322.677 17.9581C322.246 19.429 321.491 20.7205 320.412 21.8326C319.334 22.9448 317.878 23.8237 316.044 24.4695C314.211 25.1152 311.892 25.4381 309.088 25.4381H301.107V40.3442H296.199V1.92188ZM309.034 21.2407C310.903 21.2407 312.449 21.0613 313.672 20.7026C314.894 20.3438 315.847 19.8236 316.53 19.142C317.213 18.4604 317.68 17.6532 317.932 16.7204C318.219 15.7518 318.363 14.6755 318.363 13.4916C318.363 12.2719 318.219 11.1956 317.932 10.2629C317.644 9.33011 317.141 8.55879 316.422 7.94891C315.703 7.33904 314.732 6.8906 313.51 6.60359C312.323 6.28072 310.813 6.11928 308.98 6.11928H301.107V21.2407H309.034Z" fill="white"/>
<path d="M328.783 12.523H333.42V16.828C334.463 15.2854 335.685 14.1015 337.087 13.2764C338.489 12.4513 339.981 12.0387 341.563 12.0387C342.534 12.0387 343.361 12.1104 344.044 12.2539L343.451 16.6128C343.091 16.541 342.732 16.4872 342.372 16.4513C342.013 16.3796 341.617 16.3437 341.186 16.3437C340.323 16.3437 339.442 16.5052 338.543 16.828C337.645 17.115 336.8 17.6173 336.009 18.3348C335.218 19.0164 334.589 19.8057 334.121 20.7026C333.69 21.5994 333.474 22.6398 333.474 23.8237V40.3442H328.783V12.523Z" fill="white"/>
<path d="M359.41 41.2053C357.289 41.2053 355.401 40.8644 353.747 40.1828C352.094 39.5012 350.692 38.5325 349.541 37.2769C348.391 36.0213 347.51 34.4786 346.899 32.649C346.287 30.8194 345.982 28.7745 345.982 26.5143C345.982 24.2542 346.305 22.2093 346.953 20.3797C347.6 18.55 348.516 16.9895 349.703 15.698C350.889 14.4065 352.309 13.4199 353.963 12.7383C355.653 12.0208 357.522 11.662 359.572 11.662C361.657 11.662 363.526 12.0028 365.18 12.6844C366.834 13.3661 368.236 14.3526 369.386 15.6442C370.573 16.8998 371.471 18.4245 372.083 20.2182C372.694 22.012 372.999 24.039 372.999 26.2991C372.999 28.5951 372.676 30.6579 372.029 32.4876C371.417 34.3172 370.519 35.8778 369.332 37.1693C368.182 38.4608 366.762 39.4653 365.072 40.1828C363.382 40.8644 361.495 41.2053 359.41 41.2053ZM359.464 37.3307C360.974 37.3307 362.268 37.0617 363.346 36.5235C364.425 35.9854 365.306 35.232 365.989 34.2634C366.708 33.2948 367.229 32.1468 367.553 30.8194C367.876 29.4561 368.038 27.9673 368.038 26.3529C368.038 24.7744 367.876 23.3215 367.553 21.9941C367.229 20.6667 366.708 19.5366 365.989 18.6039C365.306 17.6352 364.425 16.8818 363.346 16.3437C362.268 15.8056 360.974 15.5365 359.464 15.5365C357.954 15.5365 356.659 15.8056 355.581 16.3437C354.538 16.8818 353.658 17.6352 352.938 18.6039C352.255 19.5366 351.752 20.6667 351.429 21.9941C351.105 23.3215 350.943 24.7923 350.943 26.4067C350.943 28.0211 351.105 29.492 351.429 30.8194C351.752 32.1468 352.255 33.2948 352.938 34.2634C353.622 35.232 354.502 35.9854 355.581 36.5235C356.659 37.0617 357.954 37.3307 359.464 37.3307Z" fill="white"/>
</svg>
